<?xml version="1.0" standalone="no"?>
<!DOCTYPE svg PUBLIC "-//W3C//DTD SVG 20010904//EN"
 "http://www.w3.org/TR/2001/REC-SVG-20010904/DTD/svg10.dtd">
<svg version="1.0" xmlns="http://www.w3.org/2000/svg"
 width="572.000000pt" height="572.000000pt" viewBox="0 0 572.000000 572.000000"
 preserveAspectRatio="xMidYMid meet">
<metadata>
Created by potrace 1.14, written by Peter Selinger 2001-2017
</metadata>
<g transform="translate(0.000000,572.000000) scale(0.100000,-0.100000)"
fill="#000000" stroke="none">
<path d="M4020 5679 c-215 -30 -448 -91 -595 -158 -167 -76 -314 -182 -341
-246 -24 -58 -37 -278 -30 -514 l6 -223 -22 6 c-13 3 -72 9 -131 13 -104 6
-108 7 -104 27 3 12 16 57 29 101 20 71 23 100 23 270 -1 141 -5 209 -18 264
-40 177 -119 260 -287 302 -37 9 -114 14 -235 13 -264 0 -440 -36 -710 -144
-210 -84 -394 -173 -539 -258 -214 -127 -289 -285 -288 -612 0 -357 87 -635
277 -887 56 -75 106 -108 176 -118 l48 -7 -91 -121 c-176 -236 -264 -378 -389
-627 -268 -535 -369 -929 -369 -1439 1 -412 79 -695 257 -929 118 -154 289
-273 458 -317 237 -62 488 -78 1120 -72 519 4 612 10 875 53 488 79 1001 262
1305 465 141 94 298 249 384 379 265 402 339 922 194 1360 -44 133 -140 318
-251 485 -71 108 -115 159 -257 301 -93 94 -232 221 -308 284 -75 62 -136 114
-135 116 2 1 48 17 103 34 137 44 312 113 420 167 263 131 475 337 606 587 80
153 135 361 119 444 -5 26 -17 92 -26 147 -37 225 -61 282 -162 377 -179 169
-641 445 -797 476 -66 14 -219 14 -315 1z m315 -54 c217 -57 775 -420 841
-548 46 -87 77 -261 78 -427 1 -147 -13 -212 -75 -349 -98 -216 -325 -458
-539 -575 -138 -75 -558 -236 -616 -236 -9 0 -44 20 -78 44 l-61 43 -18 89
c-10 48 -34 135 -53 192 -19 58 -33 106 -32 106 33 18 97 69 129 103 104 113
113 263 21 365 -98 108 -237 112 -389 11 l-54 -36 -25 24 c-21 19 -28 21 -44
12 -14 -10 -26 -8 -57 6 -37 18 -123 46 -209 70 l-41 11 -6 97 c-12 168 -8
443 7 542 13 83 18 97 48 128 66 69 279 183 441 238 244 81 597 125 732 90z
m-1801 -155 c104 -26 160 -60 197 -118 42 -66 58 -127 74 -281 12 -116 12
-149 0 -240 -7 -58 -25 -143 -40 -188 l-26 -83 -87 0 c-225 -1 -387 -49 -532
-159 -36 -27 -68 -47 -72 -44 -5 2 -8 14 -8 27 0 92 -79 204 -178 253 -50 24
-69 28 -149 28 -85 0 -94 -2 -135 -30 -54 -37 -98 -119 -98 -182 0 -52 39
-158 79 -216 40 -59 104 -115 161 -141 l48 -22 -126 -140 c-69 -76 -170 -192
-225 -258 l-100 -119 -60 7 c-33 3 -74 15 -91 25 -48 30 -139 158 -205 288
-95 189 -149 499 -130 743 23 302 95 393 445 568 228 114 506 221 666 257 220
48 458 58 592 25z m-698 -878 c96 -49 134 -103 155 -216 l13 -67 -89 -89 c-80
-80 -94 -90 -126 -90 -98 0 -241 170 -257 306 -8 73 47 159 113 177 42 12 150
0 191 -21z m868 -104 c-13 -39 -10 -62 8 -66 13 -2 24 10 40 42 l22 46 77 0
c145 0 397 -58 520 -120 32 -17 63 -30 69 -30 34 0 157 -156 230 -293 40 -74
41 -79 25 -97 -21 -23 -12 -40 20 -40 20 0 26 -11 54 -97 37 -120 55 -192 49
-199 -3 -2 -53 25 -112 62 -104 64 -141 75 -134 37 2 -9 50 -46 108 -82 154
-96 260 -172 255 -181 -3 -4 -59 -18 -125 -30 -122 -23 -159 -38 -146 -58 12
-20 44 -16 261 28 22 5 48 12 57 15 30 12 353 -260 543 -456 199 -205 392
-524 463 -764 54 -181 71 -474 38 -662 -86 -490 -342 -848 -766 -1076 -142
-76 -343 -157 -560 -225 -302 -95 -526 -139 -915 -179 -244 -24 -1009 -24
-1243 0 -365 39 -485 74 -642 190 -201 147 -336 391 -397 717 -25 135 -25 582
0 755 46 308 142 600 318 964 127 262 237 441 431 698 79 105 105 133 129 138
26 6 30 11 26 31 -3 18 10 41 56 96 144 172 511 568 527 568 5 0 10 -19 12
-42 2 -36 7 -44 26 -46 21 -3 22 0 22 72 l0 76 75 60 c91 71 143 102 210 124
69 22 215 44 303 45 72 1 73 1 66 -21z m1109 -33 c84 -35 128 -100 128 -191 0
-87 -45 -161 -137 -224 l-42 -30 -37 68 c-42 76 -155 241 -179 261 -9 8 -16
19 -16 25 0 28 158 105 216 106 17 0 47 -7 67 -15z"/>
<path d="M3636 3598 c-3 -7 -7 -25 -10 -39 -5 -22 -10 -25 -35 -21 -23 3 -33
-1 -46 -22 -22 -34 -22 -112 1 -137 23 -26 39 -24 79 8 25 20 33 33 29 48 -2
11 2 43 11 70 21 72 20 105 -5 105 -11 0 -22 -6 -24 -12z m-45 -155 c-9 -15
-10 -12 -10 17 0 29 1 32 10 18 7 -12 7 -24 0 -35z"/>
<path d="M2935 3579 c-4 -5 -5 -40 -2 -77 2 -37 2 -55 0 -40 -4 27 -27 43 -45
32 -16 -10 -3 -129 16 -159 19 -29 47 -32 68 -7 16 18 34 215 22 246 -7 18
-49 22 -59 5z"/>
<path d="M2590 2765 c0 -210 160 -483 307 -526 33 -10 105 -14 233 -14 162 0
194 3 255 22 240 75 419 328 364 514 -22 70 -67 55 -48 -17 38 -135 -79 -327
-251 -413 -104 -52 -185 -65 -369 -59 -173 6 -212 18 -272 87 -94 107 -157
252 -168 386 -5 73 -8 80 -28 83 -22 3 -23 0 -23 -63z"/>
</g>
</svg>
